<svg width="302" height="48" viewBox="0 0 302 48" fill="none" xmlns="http://www.w3.org/2000/svg">
<path d="M47.5978 23.6735C47.5978 10.599 36.9427 0 23.7989 0C10.6551 0 0 10.599 0 23.6735V24.0516C0 37.1261 10.6551 47.7251 23.7989 47.7251C36.9427 47.7251 47.5978 37.1261 47.5978 24.0516V23.6735Z" fill="#00C39D"/>
<path d="M61.0794 18.9322V24.1273H70.2261V27.7779H61.0794V34.9388H56.5061V15.2816H71.44V18.9322H61.0794ZM86.8446 34.9388L83.0335 29.4628H82.8077H78.8272V34.9388H74.2539V15.2816H82.8077C84.558 15.2816 86.0729 15.5718 87.3528 16.1522C88.6514 16.7325 89.6486 17.5562 90.3452 18.6233C91.0414 19.6904 91.3897 20.9541 91.3897 22.4144C91.3897 23.8746 91.0319 25.1383 90.317 26.2054C89.6204 27.2538 88.6231 28.0588 87.3246 28.6204L91.7567 34.9388H86.8446ZM86.7599 22.4144C86.7599 21.3098 86.4021 20.4674 85.6872 19.887C84.9719 19.2879 83.9274 18.9884 82.5536 18.9884H78.8272V25.8403H82.5536C83.9274 25.8403 84.9719 25.5408 85.6872 24.9417C86.4021 24.3426 86.7599 23.5002 86.7599 22.4144ZM104.301 35.2757C102.25 35.2757 100.396 34.8359 98.7395 33.9559C97.1021 33.0759 95.813 31.8685 94.8719 30.3334C93.9498 28.7795 93.4886 27.0385 93.4886 25.1102C93.4886 23.1819 93.9498 21.4502 94.8719 19.9151C95.813 18.3612 97.1021 17.1444 98.7395 16.2645C100.396 15.3846 102.25 14.9446 104.301 14.9446C106.352 14.9446 108.197 15.3846 109.834 16.2645C111.471 17.1444 112.761 18.3612 113.702 19.9151C114.643 21.4502 115.113 23.1819 115.113 25.1102C115.113 27.0385 114.643 28.7795 113.702 30.3334C112.761 31.8685 111.471 33.0759 109.834 33.9559C108.197 34.8359 106.352 35.2757 104.301 35.2757ZM104.301 31.4005C105.468 31.4005 106.522 31.1384 107.463 30.6142C108.404 30.0713 109.138 29.3224 109.665 28.3677C110.211 27.4129 110.483 26.3271 110.483 25.1102C110.483 23.8933 110.211 22.8075 109.665 21.8527C109.138 20.8979 108.404 20.1585 107.463 19.6343C106.522 19.0914 105.468 18.8199 104.301 18.8199C103.134 18.8199 102.08 19.0914 101.139 19.6343C100.198 20.1585 99.4548 20.8979 98.9089 21.8527C98.382 22.8075 98.1184 23.8933 98.1184 25.1102C98.1184 26.3271 98.382 27.4129 98.9089 28.3677C99.4548 29.3224 100.198 30.0713 101.139 30.6142C102.08 31.1384 103.134 31.4005 104.301 31.4005ZM136.392 15.2816V34.9388H132.637L122.785 23.0041V34.9388H118.268V15.2816H122.051L131.875 27.2163V15.2816H136.392ZM144.879 18.9884H138.555V15.2816H155.775V18.9884H149.452V34.9388H144.879V18.9884ZM173.255 31.2881V34.9388H157.954V15.2816H172.888V18.9322H162.499V23.2006H171.674V26.7389H162.499V31.2881H173.255ZM194.735 15.2816V34.9388H190.98L181.128 23.0041V34.9388H176.611V15.2816H180.394L190.218 27.2163V15.2816H194.735ZM199.128 15.2816H208.106C210.251 15.2816 212.142 15.6935 213.78 16.5172C215.436 17.3222 216.716 18.4642 217.619 19.9432C218.541 21.4221 219.002 23.1445 219.002 25.1102C219.002 27.0759 218.541 28.7983 217.619 30.2772C216.716 31.7562 215.436 32.9074 213.78 33.7313C212.142 34.5361 210.251 34.9388 208.106 34.9388H199.128V15.2816ZM207.88 31.2039C209.856 31.2039 211.427 30.661 212.594 29.5752C213.78 28.4706 214.373 26.9823 214.373 25.1102C214.373 23.2381 213.78 21.7591 212.594 20.6733C211.427 19.5687 209.856 19.0165 207.88 19.0165H203.702V31.2039H207.88ZM231.901 35.1112C229.898 35.1112 228.088 34.6707 226.47 33.7894C224.871 32.9081 223.61 31.6917 222.686 30.1401C221.781 28.5692 221.328 26.8164 221.328 24.8816C221.328 22.9468 221.781 21.2036 222.686 19.6519C223.61 18.0811 224.881 16.8551 226.499 15.9739C228.117 15.0927 229.927 14.6521 231.93 14.6521C233.432 14.6521 234.818 14.9011 236.089 15.3992C237.36 15.8972 238.439 16.6252 239.325 17.583L237.967 18.9335C236.388 17.3436 234.395 16.5486 231.987 16.5486C230.389 16.5486 228.935 16.9125 227.626 17.6405C226.316 18.3684 225.286 19.3646 224.535 20.6289C223.803 21.8932 223.437 23.3108 223.437 24.8816C223.437 26.4525 223.803 27.87 224.535 29.1344C225.286 30.3987 226.316 31.3948 227.626 32.1228C228.935 32.8506 230.389 33.2147 231.987 33.2147C234.414 33.2147 236.407 32.4101 237.967 30.801L239.325 32.1515C238.439 33.1092 237.351 33.8468 236.061 34.3641C234.79 34.862 233.403 35.1112 231.901 35.1112ZM255.766 29.5654H244.5L242.074 34.9388H239.85L249.093 14.8245H251.202L260.446 34.9388H258.193L255.766 29.5654ZM254.986 27.8413L250.133 17.037L245.28 27.8413H254.986ZM265.64 16.6635V24.5655H276.097V26.4046H265.64V34.9388H263.502V14.8245H277.368V16.6635H265.64ZM295.793 33.0997V34.9388H281.493V14.8245H295.359V16.6635H283.631V23.8184H294.088V25.6287H283.631V33.0997H295.793Z" fill="#444444"/>
<mask id="mask0" mask-type="alpha" maskUnits="userSpaceOnUse" x="0" y="0" width="48" height="48">
<path d="M47.5978 23.6735C47.5978 10.599 36.9427 0 23.7989 0C10.6551 0 0 10.599 0 23.6735V24.0516C0 37.1261 10.6551 47.7251 23.7989 47.7251C36.9427 47.7251 47.5978 37.1261 47.5978 24.0516V23.6735Z" fill="#00C39D"/>
</mask>
<g mask="url(#mask0)">
<path opacity="0.8" d="M7.33643 27.4114L19.3773 18.8951L35.072 14.5956L49.5857 35.1791L24.4063 53.1566L7.33643 27.4114Z" fill="#005141" fill-opacity="0.8"/>
<path fill-rule="evenodd" clip-rule="evenodd" d="M15.2578 14.4722V19.0377L7.27539 24.1229V27.4394L15.2578 32.5244V35.5334C15.2578 36.1198 15.4914 36.6825 15.9073 37.0968C16.3231 37.5115 16.8871 37.7447 17.4752 37.7447H32.8947C33.4826 37.7447 34.0466 37.5115 34.4625 37.0968C34.8784 36.6825 35.1118 36.1198 35.1118 35.5334V14.4722H15.2578ZM11.2954 25.7214L15.2578 23.3359V28.2198L11.2954 25.7214ZM32.5043 24.8813V26.5019L27.0097 29.9952V27.8439L30.542 25.7193V25.664L27.0097 23.5393V21.388L32.5043 24.8813ZM18.3932 31.4146H20.3888L25.0141 19.2611H23.0185L18.3932 31.4146Z" fill="white"/>
<path d="M21.4286 10.5058C21.4286 10.8352 21.81 11.1691 22.4442 11.3902L21.8344 12.6813C20.4663 12.0999 19.9142 11.315 19.9142 10.4815C19.9142 9.4202 20.8277 9.0156 20.8277 8.33243C20.8277 7.98974 20.4464 7.66915 19.8123 7.44806L20.4153 6.14804C21.7835 6.73834 22.3533 7.52322 22.3533 8.35895C22.3533 9.4202 21.4286 9.82481 21.4286 10.5058Z" fill="white"/>
<path d="M29.0787 10.5058C29.0787 10.8352 29.46 11.1691 30.092 11.3902L29.4845 12.6813C28.1163 12.0999 27.5576 11.315 27.5576 10.4815C27.5576 9.4202 28.4711 9.0156 28.4711 8.33243C28.4711 7.98974 28.0897 7.66915 27.4556 7.44806L28.0653 6.14804C29.4334 6.72949 29.9923 7.51438 29.9923 8.35895C29.9923 9.4202 29.0787 9.82481 29.0787 10.5058Z" fill="white"/>
<path d="M25.3843 8.50707C25.3843 8.83429 25.7657 9.17035 26.3998 9.39145L25.79 10.6804C24.422 10.0989 23.8632 9.31628 23.8632 8.48056C23.8632 7.4193 24.7767 7.01469 24.7767 6.3315C24.7767 5.99102 24.3954 5.66825 23.7612 5.44715L24.3709 4.15817C25.7391 4.73963 26.2978 5.52232 26.2978 6.36911C26.2978 7.4193 25.3843 7.8239 25.3843 8.50707Z" fill="white"/>
</g>
</svg>
